<?xml version="1.0" encoding="UTF-8"?>
<svg width="31px" height="40px" viewBox="0 0 31 40" version="1.1" xmlns="http://www.w3.org/2000/svg" xmlns:xlink="http://www.w3.org/1999/xlink">
    <!-- Generator: Sketch 59.1 (86144) - https://sketch.com -->
    <title>dbicon</title>
    <desc>Created with Sketch.</desc>
    <defs>
        <linearGradient x1="0%" y1="49.968%" x2="100%" y2="49.968%" id="linearGradient-1">
            <stop stop-color="#0069FF" stop-opacity="0.3" offset="0%"></stop>
            <stop stop-color="#0069FF" stop-opacity="0.2" offset="36%"></stop>
            <stop stop-color="#0069FF" stop-opacity="0" offset="100%"></stop>
        </linearGradient>
        <linearGradient x1="0%" y1="50.064%" x2="100%" y2="50.064%" id="linearGradient-2">
            <stop stop-color="#0069FF" stop-opacity="0.3" offset="0%"></stop>
            <stop stop-color="#0069FF" stop-opacity="0.2" offset="36%"></stop>
            <stop stop-color="#0069FF" stop-opacity="0" offset="100%"></stop>
        </linearGradient>
        <linearGradient x1="0%" y1="50.225%" x2="100%" y2="50.225%" id="linearGradient-3">
            <stop stop-color="#0069FF" stop-opacity="0.3" offset="0%"></stop>
            <stop stop-color="#0069FF" stop-opacity="0.2" offset="36%"></stop>
            <stop stop-color="#0069FF" stop-opacity="0" offset="100%"></stop>
        </linearGradient>
    </defs>
    <g id="Page-1" stroke="none" stroke-width="1" fill="none" fill-rule="evenodd">
        <g id="dbicon" transform="translate(1.000000, 1.000000)" stroke-width="2">
            <ellipse id="Oval" stroke="#0065FF" fill="#FFFFFF" fill-rule="nonzero" cx="14.45" cy="6.878" rx="14.39" ry="6.821"></ellipse>
            <path d="M0.05,6.878 L0.05,14.868 C0.05,18.668 6.5,21.688 14.45,21.688 C22.4,21.688 28.84,18.639 28.84,14.868 L28.84,6.878" id="Path" stroke="#0065FF"></path>
            <g id="Group" transform="translate(0.000000, 6.000000)">
                <path d="M28.84,0.878 L28.84,8.868 C28.84,12.668 22.39,15.688 14.45,15.688 C6.51,15.688 0.05,12.64 0.05,8.869 L0.05,0.877 C0.05,4.677 6.5,7.698 14.45,7.698 C22.4,7.698 28.84,4.697 28.84,0.878 Z" id="Path" stroke="#0069FF" fill="url(#linearGradient-1)" fill-rule="nonzero"></path>
                <line x1="12.44" y1="11.66" x2="16.46" y2="11.66" id="Path" stroke="#120078"></line>
            </g>
            <g id="Group" transform="translate(0.000000, 14.000000)">
                <path d="M28.84,0.868 L28.84,8.8 C28.84,12.6 22.39,15.65 14.45,15.65 C6.51,15.65 0.05,12.6 0.05,8.8 L0.05,0.867 C0.05,4.667 6.5,7.689 14.45,7.689 C22.4,7.689 28.84,4.639 28.84,0.867 L28.84,0.868 Z" id="Path" stroke="#0069FF" fill="url(#linearGradient-2)" fill-rule="nonzero"></path>
                <line x1="12.44" y1="11.697" x2="16.46" y2="11.697" id="Path" stroke="#120078"></line>
            </g>
            <g id="Group" transform="translate(0.000000, 22.000000)">
                <path d="M28.84,0.8 L28.84,8.79 C28.84,12.59 22.39,15.61 14.45,15.61 C6.51,15.61 0.05,12.561 0.05,8.79 L0.05,0.8 C0.05,4.6 6.5,7.65 14.45,7.65 C22.4,7.65 28.84,4.6 28.84,0.8 Z" id="Path" stroke="#0069FF" fill="url(#linearGradient-3)" fill-rule="nonzero"></path>
                <line x1="12.44" y1="11.659" x2="16.46" y2="11.659" id="Path" stroke="#120078"></line>
            </g>
        </g>
    </g>
</svg>